# xmcd CD database file
#
# Track frame offsets:
#	150
#	12669
#	44877
#	75835
#	91193
#	114413
#	139184
#	154818
#	177481
#	204861
#	221659
#
# Disc length: 3158 seconds
#
# Revision: 0
# Processed by: cddbd v1.5.2PL0 Copyright (c) Steve Scherf et al.
# Submitted via: CDex 1.50
#
DISCID=920c540b
DTITLE=Various Artist - Jazz City Hamburg Moves CD1
DYEAR=2013
DGENRE=Jazz
TTITLE0=Ballroom Buskers - If I were you
TTITLE1=Capri Di Rote Quintett - Grün hinterm Horn
TTITLE2=Caro Josée feat. Reiner Winterschladen - The lawyer`s wife
TTITLE3=Dagefoer - Monkeys and lions
TTITLE4=Frank Delle Trio - Hafenrundfahrt
TTITLE5=Gabriel Coburger Quartett - Trash ballad
TTITLE6=Hammer Klavier Trio - Rocket in the pocket
TTITLE7=Jazul - Inda Commune
TTITLE8=Lorenz Hargassner Quartett - Collage
TTITLE9=Makina V3 - To the highest pitch
TTITLE10=Mauvve Stan - Strange visitor
EXTD=YEAR: 2013
EXTT0=
EXTT1=
EXTT2=
EXTT3=
EXTT4=
EXTT5=
EXTT6=
EXTT7=
EXTT8=
EXTT9=
EXTT10=
PLAYORDER=
